<svg viewBox="571.1958 289.2737 387.6085 249.3764" width="5000" height="3216.8592794017673" xmlns="http://www.w3.org/2000/svg" xmlns:xlink="http://www.w3.org/1999/xlink" preserveAspectRatio="none"><defs></defs><style>.a6izo4zJpcolor {fill:#FFFFFF;fill-opacity:1;}.aD6z1nYkhcolor {fill:#FFFFFF;fill-opacity:1;}.alZODsKZ0Lcolors-0 {fill:#FFFFFF;fill-opacity:1;}</style><g opacity="1" transform="rotate(0 665.4908 516.4623)">
<svg width="199.0184" height="22.1878" x="665.4908" y="516.4623" version="1.1" preserveAspectRatio="none" viewBox="1.84 -29.6 359.4800000000001 40.080000000000005">
  <g transform="matrix(1 0 0 1 0 0)" class="a6izo4zJpcolor"><path d="M10-22.32Q13.88-22.32 16.22-20.34Q18.56-18.36 19.08-15.04L19.08-15.04L14.76-15.04Q14.48-16.84 13.22-17.94Q11.96-19.04 9.88-19.04L9.88-19.04Q8.16-19.04 7.22-18.22Q6.28-17.40 6.28-16L6.28-16Q6.28-14.96 6.96-14.32Q7.64-13.68 8.66-13.32Q9.68-12.96 11.56-12.52L11.56-12.52Q14.04-11.96 15.58-11.36Q17.12-10.76 18.22-9.46Q19.32-8.16 19.32-5.92L19.32-5.92Q19.32-3.16 17.22-1.44Q15.12 0.28 11.56 0.28L11.56 0.28Q7.44 0.28 4.90-1.64Q2.36-3.56 1.84-7L1.84-7L6.28-7Q6.48-5.20 7.88-4.08Q9.28-2.96 11.56-2.96L11.56-2.96Q13.20-2.96 14.14-3.82Q15.08-4.68 15.08-6L15.08-6Q15.08-7.16 14.36-7.84Q13.64-8.52 12.56-8.90Q11.48-9.28 9.60-9.68L9.60-9.68Q7.20-10.24 5.70-10.80Q4.20-11.36 3.14-12.62Q2.08-13.88 2.08-16.04L2.08-16.04Q2.08-18.84 4.18-20.58Q6.28-22.32 10-22.32L10-22.32Z M38.52-22.32Q41.40-22.32 43.66-20.96Q45.92-19.60 47.20-17.04Q48.48-14.48 48.48-11.04L48.48-11.04Q48.48-7.56 47.20-5Q45.92-2.44 43.66-1.08Q41.40 0.28 38.52 0.28L38.52 0.28Q35.52 0.28 33.40-1.20Q31.28-2.68 30.44-5.12L30.44-5.12L30.44 10.48L25.88 10.48L25.88-22.04L30.44-22.04L30.44-16.92Q31.28-19.36 33.40-20.84Q35.52-22.32 38.52-22.32L38.52-22.32ZM37.12-18.32Q35.20-18.32 33.68-17.42Q32.16-16.52 31.28-14.86Q30.40-13.20 30.40-11.04L30.40-11.04Q30.40-8.84 31.28-7.20Q32.16-5.56 33.68-4.66Q35.20-3.76 37.12-3.76L37.12-3.76Q40.16-3.76 42-5.70Q43.84-7.64 43.84-11.04L43.84-11.04Q43.84-14.40 42-16.36Q40.16-18.32 37.12-18.32L37.12-18.32Z M64.96-22.32Q68.16-22.32 70.72-20.96Q73.28-19.60 74.72-17.04Q76.16-14.48 76.16-11.04L76.16-11.04Q76.16-7.56 74.72-5Q73.28-2.44 70.72-1.08Q68.16 0.28 64.96 0.28L64.96 0.28Q61.76 0.28 59.22-1.08Q56.68-2.44 55.22-5.02Q53.76-7.60 53.76-11.04L53.76-11.04Q53.76-14.48 55.22-17.04Q56.68-19.60 59.22-20.96Q61.76-22.32 64.96-22.32L64.96-22.32ZM64.96-18.36Q63.20-18.36 61.72-17.56Q60.24-16.76 59.34-15.10Q58.44-13.44 58.44-11.04L58.44-11.04Q58.44-8.60 59.34-6.96Q60.24-5.32 61.72-4.52Q63.20-3.72 64.96-3.72L64.96-3.72Q66.72-3.72 68.20-4.52Q69.68-5.32 70.58-6.96Q71.48-8.60 71.48-11.04L71.48-11.04Q71.48-13.44 70.58-15.10Q69.68-16.76 68.20-17.56Q66.72-18.36 64.96-18.36L64.96-18.36Z M87.12-17.72Q88.24-19.88 90.32-21.14Q92.40-22.40 95.12-22.40L95.12-22.40L95.12-17.44L93.76-17.44Q90.76-17.44 88.94-15.98Q87.12-14.52 87.12-11.16L87.12-11.16L87.12 0L82.56 0L82.56-22.04L87.12-22.04L87.12-17.72Z M109.40-3.96L111.60-3.96L111.60 0L108.80 0Q105.28 0 103.46-1.70Q101.64-3.40 101.64-7.36L101.64-7.36L101.64-18.16L98.48-18.16L98.48-22.04L101.64-22.04L101.64-27.52L106.24-27.52L106.24-22.04L111.56-22.04L111.56-18.16L106.24-18.16L106.24-7.28Q106.24-5.40 106.94-4.68Q107.64-3.96 109.40-3.96L109.40-3.96Z M125.12-22.32Q129.00-22.32 131.34-20.34Q133.68-18.36 134.20-15.04L134.20-15.04L129.88-15.04Q129.60-16.84 128.34-17.94Q127.08-19.04 125.00-19.04L125.00-19.04Q123.28-19.04 122.34-18.22Q121.40-17.40 121.40-16L121.40-16Q121.40-14.96 122.08-14.32Q122.76-13.68 123.78-13.32Q124.80-12.96 126.68-12.52L126.68-12.52Q129.16-11.96 130.70-11.36Q132.24-10.76 133.34-9.46Q134.44-8.16 134.44-5.92L134.44-5.92Q134.44-3.16 132.34-1.44Q130.24 0.28 126.68 0.28L126.68 0.28Q122.56 0.28 120.02-1.64Q117.48-3.56 116.96-7L116.96-7L121.40-7Q121.60-5.20 123.00-4.08Q124.40-2.96 126.68-2.96L126.68-2.96Q128.32-2.96 129.26-3.82Q130.20-4.68 130.20-6L130.20-6Q130.20-7.16 129.48-7.84Q128.76-8.52 127.68-8.90Q126.60-9.28 124.72-9.68L124.72-9.68Q122.32-10.24 120.82-10.80Q119.32-11.36 118.26-12.62Q117.20-13.88 117.20-16.04L117.20-16.04Q117.20-18.84 119.30-20.58Q121.40-22.32 125.12-22.32L125.12-22.32Z M161.20-22.32Q164.20-22.32 166.32-20.84Q168.44-19.36 169.32-16.92L169.32-16.92L169.32-22.04L173.88-22.04L173.88 0L169.32 0L169.32-5.12Q168.44-2.68 166.32-1.20Q164.20 0.28 161.20 0.28L161.20 0.28Q158.32 0.28 156.06-1.08Q153.80-2.44 152.52-5Q151.24-7.56 151.24-11.04L151.24-11.04Q151.24-14.48 152.52-17.04Q153.80-19.60 156.06-20.96Q158.32-22.32 161.20-22.32L161.20-22.32ZM162.60-18.32Q159.56-18.32 157.74-16.38Q155.92-14.44 155.92-11.04L155.92-11.04Q155.92-7.64 157.74-5.70Q159.56-3.76 162.60-3.76L162.60-3.76Q164.52-3.76 166.04-4.66Q167.56-5.56 168.44-7.20Q169.32-8.84 169.32-11.04L169.32-11.04Q169.32-13.20 168.44-14.86Q167.56-16.52 166.04-17.42Q164.52-18.32 162.60-18.32L162.60-18.32Z M193.68-22.40Q197.52-22.40 199.84-19.92Q202.16-17.44 202.16-12.84L202.16-12.84L202.16 0L197.60 0L197.60-12.36Q197.60-15.32 196.08-16.94Q194.56-18.56 191.92-18.56L191.92-18.56Q189.20-18.56 187.56-16.82Q185.92-15.08 185.92-11.72L185.92-11.72L185.92 0L181.36 0L181.36-22.04L185.92-22.04L185.92-17.20Q186.80-19.68 188.88-21.04Q190.96-22.40 193.68-22.40L193.68-22.40Z M218.32-22.32Q221.32-22.32 223.44-20.84Q225.56-19.36 226.40-16.92L226.40-16.92L226.40-29.60L231.00-29.60L231.00 0L226.40 0L226.40-5.12Q225.56-2.68 223.44-1.20Q221.32 0.28 218.32 0.28L218.32 0.28Q215.44 0.28 213.18-1.08Q210.92-2.44 209.64-5Q208.36-7.56 208.36-11.04L208.36-11.04Q208.36-14.48 209.64-17.04Q210.92-19.60 213.18-20.96Q215.44-22.32 218.32-22.32L218.32-22.32ZM219.72-18.32Q216.68-18.32 214.86-16.38Q213.04-14.44 213.04-11.04L213.04-11.04Q213.04-7.64 214.86-5.70Q216.68-3.76 219.72-3.76L219.72-3.76Q221.64-3.76 223.16-4.66Q224.68-5.56 225.56-7.20Q226.44-8.84 226.44-11.04L226.44-11.04Q226.44-13.20 225.56-14.86Q224.68-16.52 223.16-17.42Q221.64-18.32 219.72-18.32L219.72-18.32Z M259.64-22.32Q263.92-22.32 266.72-20.06Q269.52-17.80 270.20-13.92L270.20-13.92L265.36-13.92Q264.96-16 263.42-17.18Q261.88-18.36 259.56-18.36L259.56-18.36Q256.92-18.36 255.16-16.50Q253.40-14.64 253.40-11.04L253.40-11.04Q253.40-7.44 255.16-5.56Q256.92-3.68 259.56-3.68L259.56-3.68Q261.88-3.68 263.42-4.88Q264.96-6.08 265.36-8.16L265.36-8.16L270.20-8.16Q269.52-4.28 266.72-2Q263.92 0.28 259.64 0.28L259.64 0.28Q256.44 0.28 253.98-1.08Q251.52-2.44 250.12-5Q248.72-7.56 248.72-11.04L248.72-11.04Q248.72-14.48 250.12-17.04Q251.52-19.60 253.98-20.96Q256.44-22.32 259.64-22.32L259.64-22.32Z M274.08-22.04L279.20-22.04L285.80-5.84L291.92-22.04L297.00-22.04L283.68 10.48L278.60 10.48L283.36-0.52L274.08-22.04Z M311.80-22.32Q316.08-22.32 318.88-20.06Q321.68-17.80 322.36-13.92L322.36-13.92L317.52-13.92Q317.12-16 315.58-17.18Q314.04-18.36 311.72-18.36L311.72-18.36Q309.08-18.36 307.32-16.50Q305.56-14.64 305.56-11.04L305.56-11.04Q305.56-7.44 307.32-5.56Q309.08-3.68 311.72-3.68L311.72-3.68Q314.04-3.68 315.58-4.88Q317.12-6.08 317.52-8.16L317.52-8.16L322.36-8.16Q321.68-4.28 318.88-2Q316.08 0.28 311.80 0.28L311.80 0.28Q308.60 0.28 306.14-1.08Q303.68-2.44 302.28-5Q300.88-7.56 300.88-11.04L300.88-11.04Q300.88-14.48 302.28-17.04Q303.68-19.60 306.14-20.96Q308.60-22.32 311.80-22.32L311.80-22.32Z M328.76-29.60L333.32-29.60L333.32 0L328.76 0L328.76-29.60Z M361.32-12.08Q361.32-10.96 361.16-10.12L361.16-10.12L344.20-10.12Q344.32-6.72 346.08-5.08Q347.84-3.44 350.44-3.44L350.44-3.44Q352.72-3.44 354.30-4.60Q355.88-5.76 356.24-7.68L356.24-7.68L361.12-7.68Q360.68-5.36 359.28-3.56Q357.88-1.76 355.64-0.74Q353.40 0.28 350.64 0.28L350.64 0.28Q347.44 0.28 344.98-1.08Q342.52-2.44 341.12-5Q339.72-7.56 339.72-11.04L339.72-11.04Q339.72-14.48 341.12-17.04Q342.52-19.60 344.98-20.96Q347.44-22.32 350.64-22.32L350.64-22.32Q353.88-22.32 356.30-20.98Q358.72-19.64 360.02-17.30Q361.32-14.96 361.32-12.08L361.32-12.08ZM356.72-12.20Q356.80-14.36 355.98-15.82Q355.16-17.28 353.74-17.98Q352.32-18.68 350.64-18.68L350.64-18.68Q347.96-18.68 346.16-17.04Q344.36-15.40 344.20-12.20L344.20-12.20L356.72-12.20Z"/></g>
</svg>
</g><g opacity="1" transform="rotate(0 571.1958 410.2737)">
<svg width="387.6085" height="80.2268" x="571.1958" y="410.2737" version="1.1" preserveAspectRatio="none" viewBox="2.4 -30 183.39999999999998 37.96">
  <g transform="matrix(1 0 0 1 0 0)" class="aD6z1nYkhcolor"><path d="M3.68 0L2.40 0L2.40-30L3.68-30L3.68-13.60Q4.76-15.80 7.06-17.12Q9.36-18.44 11.84-18.44L11.84-18.44Q15.80-18.44 18.58-15.66Q21.36-12.88 21.36-9Q21.36-5.12 18.58-2.34Q15.80 0.44 11.84 0.44L11.84 0.44Q9.44 0.44 7.16-0.86Q4.88-2.16 3.68-4.36L3.68-4.36L3.68 0ZM3.60-8.96Q3.60-5.60 6.06-3.14Q8.52-0.68 11.90-0.68Q15.28-0.68 17.68-3.14Q20.08-5.60 20.08-8.98Q20.08-12.36 17.66-14.84Q15.24-17.32 11.88-17.32Q8.52-17.32 6.06-14.82Q3.60-12.32 3.60-8.96Z M35.68-15.56Q33.92-17.32 31.80-17.32Q29.68-17.32 28.06-15.72Q26.44-14.12 26.44-12L26.44-12L26.44 0L25.16 0L25.16-18L26.44-18L26.44-15.32Q27.16-16.68 28.68-17.56Q30.20-18.44 32.08-18.44Q33.96-18.44 35.68-17.16L35.68-17.16L35.68-15.56Z M48.08 0.48L48.08 0.48L47.72 0.48Q43.92 0.48 41.10-2.38Q38.28-5.24 38.28-9.04Q38.28-12.84 41.08-15.62Q43.88-18.40 48-18.40Q52.12-18.40 55.08-15.12L55.08-15.12L42.52-2.72Q45.12-0.64 47.52-0.64Q49.92-0.64 51.82-1.74Q53.72-2.84 54.96-4.68L54.96-4.68L54.96-2.64Q52.12 0.48 48.08 0.48ZM47.66-17.28Q44.48-17.28 42.02-14.82Q39.56-12.36 39.56-9.16Q39.56-5.96 41.68-3.56L41.68-3.56L53.32-15.12Q50.84-17.28 47.66-17.28Z M75.56-18L76.84-18L76.84 0L75.56 0L75.56-4.48Q74.44-2.20 72.20-0.88Q69.96 0.44 67.40 0.44L67.40 0.44Q63.48 0.44 60.68-2.34Q57.88-5.12 57.88-9Q57.88-12.88 60.68-15.66Q63.48-18.44 67.40-18.44L67.40-18.44Q69.96-18.44 72.30-17.08Q74.64-15.72 75.56-13.48L75.56-13.48L75.56-18ZM59.16-8.96Q59.16-5.60 61.62-3.14Q64.08-0.68 67.46-0.68Q70.84-0.68 73.24-3.14Q75.64-5.60 75.64-8.98Q75.64-12.36 73.22-14.84Q70.80-17.32 67.44-17.32Q64.08-17.32 61.62-14.82Q59.16-12.32 59.16-8.96Z M81.64 0L81.64-29.92L82.92-29.92L82.92-11.76L90.04-18L91.68-18L83.44-10.80L93.76 0L92.04 0L82.92-9.48L82.92 0L81.64 0Z M113.84-18L115.12-18L115.12 0L113.84 0L113.84-4.48Q112.72-2.20 110.48-0.88Q108.24 0.44 105.68 0.44L105.68 0.44Q101.76 0.44 98.96-2.34Q96.16-5.12 96.16-9Q96.16-12.88 98.96-15.66Q101.76-18.44 105.68-18.44L105.68-18.44Q108.24-18.44 110.58-17.08Q112.92-15.72 113.84-13.48L113.84-13.48L113.84-18ZM97.44-8.96Q97.44-5.60 99.90-3.14Q102.36-0.68 105.74-0.68Q109.12-0.68 111.52-3.14Q113.92-5.60 113.92-8.98Q113.92-12.36 111.50-14.84Q109.08-17.32 105.72-17.32Q102.36-17.32 99.90-14.82Q97.44-12.32 97.44-8.96Z M127.16 0.44L118.52-18L119.84-18L127.24-2.28L130.72-9.60L126.84-17.92L128.12-17.92L131.36-10.84L134.68-18L135.88-18L131.96-9.60L135.40-2.20L142.72-17.96L143.88-17.96L135.36 0.44L131.28-8.32L127.16 0.44Z M163.96-18L165.24-18L165.24 0L163.96 0L163.96-4.48Q162.84-2.20 160.60-0.88Q158.36 0.44 155.80 0.44L155.80 0.44Q151.88 0.44 149.08-2.34Q146.28-5.12 146.28-9Q146.28-12.88 149.08-15.66Q151.88-18.44 155.80-18.44L155.80-18.44Q158.36-18.44 160.70-17.08Q163.04-15.72 163.96-13.48L163.96-13.48L163.96-18ZM147.56-8.96Q147.56-5.60 150.02-3.14Q152.48-0.68 155.86-0.68Q159.24-0.68 161.64-3.14Q164.04-5.60 164.04-8.98Q164.04-12.36 161.62-14.84Q159.20-17.32 155.84-17.32Q152.48-17.32 150.02-14.82Q147.56-12.32 147.56-8.96Z M184.52-7.52L184.52-18L185.80-18L185.80-0.56Q185.80 3 183.32 5.48Q180.84 7.96 177.24 7.96L177.24 7.96Q172.92 7.96 170.40 4.64L170.40 4.64L170.48 2.64Q171.60 4.56 173.42 5.70Q175.24 6.84 177.24 6.84L177.24 6.84Q180.20 6.84 182.36 4.70Q184.52 2.56 184.52-0.44L184.52-0.44L184.52-3.48Q182.56 0.44 177.68 0.44L177.68 0.44Q174.36 0.44 172-1.90Q169.64-4.24 169.64-7.52L169.64-7.52L169.64-18L170.92-18L170.92-7.52Q170.92-4.76 172.94-2.72Q174.96-0.68 177.72-0.68Q180.48-0.68 182.50-2.72Q184.52-4.76 184.52-7.52L184.52-7.52Z"/></g>
</svg>
</g><g opacity="1" transform="rotate(0 715.0567 289.2737)">
<svg width="99.8868" height="100" x="715.0567" y="289.2737" version="1.1" preserveAspectRatio="none" viewBox="6 5.900000095367432 88.19999694824219 88.29999542236328">
  <g transform="matrix(1 0 0 1 0 0)" class="alZODsKZ0Lcolors-0"><path d="M45.2,62.2h-17v-3h17c1.8,0,3.4-1.5,3.4-3.4V50h3v5.8C51.6,59.4,48.7,62.2,45.2,62.2z"></path><path d="M45.2,53.4H32.5v-3h12.7c1.8,0,3.4-1.5,3.4-3.4v-3.5h3V47C51.6,50.5,48.7,53.4,45.2,53.4z"></path><path d="M45.2,44.4h-8.8v-3h8.8c1.8,0,3.4-1.5,3.4-3.4v-0.9h3v0.9C51.6,41.6,48.7,44.4,45.2,44.4z"></path><path d="M45.2,36.3h-4.7v-3h4.7c1.8,0,3.4-1.5,3.4-3.4h3C51.6,33.5,48.7,36.3,45.2,36.3z"></path><path d="M45.2,28.7h-2.3v-3h2.3c1.8,0,3.4-1.5,3.4-3.4h3C51.6,25.8,48.7,28.7,45.2,28.7z"></path><rect x="48.6" y="16.8" width="3" height="59.1"></rect><path d="M72,62.2H55c-3.5,0-6.4-2.9-6.4-6.4V50h3v5.8c0,1.8,1.5,3.4,3.4,3.4h17V62.2z"></path><path d="M67.7,53.4H55c-3.5,0-6.4-2.9-6.4-6.4v-3.5h3V47c0,1.8,1.5,3.4,3.4,3.4h12.7V53.4z"></path><path d="M63.8,44.4H55c-3.5,0-6.4-2.9-6.4-6.4v-0.9h3v0.9c0,1.8,1.5,3.4,3.4,3.4h8.8V44.4z"></path><path d="M59.7,36.3H55c-3.5,0-6.4-2.9-6.4-6.4h3c0,1.8,1.5,3.4,3.4,3.4h4.7V36.3z"></path><path d="M57.3,28.7H55c-3.5,0-6.4-2.9-6.4-6.4h3c0,1.8,1.5,3.4,3.4,3.4h2.3V28.7z"></path><path d="M50.1,94.2C25.8,94.2,6,74.4,6,50.1S25.8,5.9,50.1,5.9s44.1,19.8,44.1,44.1S74.4,94.2,50.1,94.2z M50.1,8.9  C27.4,8.9,9,27.4,9,50.1s18.4,41.1,41.1,41.1s41.1-18.4,41.1-41.1S72.8,8.9,50.1,8.9z"></path><rect x="11.6" y="67.7" width="76.4" height="3"></rect></g>
</svg>
</g></svg>